<?xml version="1.0" encoding="utf-8"?>
<!-- Generator: Adobe Illustrator 19.2.1, SVG Export Plug-In . SVG Version: 6.00 Build 0)  -->
<svg version="1.1" id="Layer_1" xmlns="http://www.w3.org/2000/svg" xmlns:xlink="http://www.w3.org/1999/xlink" x="0px" y="0px"
	 viewBox="0 0 36.5 36.5" style="enable-background:new 0 0 36.5 36.5;" xml:space="preserve">
<style type="text/css">
	.st0{fill:#FFFFFF;}
	.st1{fill:#333333;}
</style>
<g>
	<path class="st0" d="M18.4,36.5h-0.2C8.1,36.5,0,28.4,0,18.4v-0.2C0,8.1,8.1,0,18.2,0h0.2c10,0,18.2,8.1,18.2,18.2v0.2
		C36.5,28.4,28.4,36.5,18.4,36.5z"/>
	<g>
		<path class="st1" d="M9.1,15.1H13v12.7H9.1V15.1z M11,8.8c1.3,0,2.3,1,2.3,2.3c0,1.3-1,2.3-2.3,2.3c-1.3,0-2.3-1-2.3-2.3
			C8.8,9.8,9.8,8.8,11,8.8"/>
		<path class="st1" d="M15.5,15.1h3.8v1.7h0.1c0.5-1,1.8-2,3.7-2c4,0,4.7,2.6,4.7,6v7h-3.9v-6.2c0-1.5,0-3.4-2-3.4
			c-2.1,0-2.4,1.6-2.4,3.3v6.3h-3.9V15.1z"/>
	</g>
</g>
</svg>
