<?xml version="1.0" encoding="utf-8"?>
<!-- Generator: Adobe Illustrator 19.2.1, SVG Export Plug-In . SVG Version: 6.00 Build 0)  -->
<svg version="1.1" id="Layer_1" xmlns="http://www.w3.org/2000/svg" xmlns:xlink="http://www.w3.org/1999/xlink" x="0px" y="0px"
	 viewBox="0 0 36.5 36.9" style="enable-background:new 0 0 36.5 36.9;" xml:space="preserve">
<style type="text/css">
	.st0{fill:#FFFFFF;}
	.st1{fill:#333333;}
</style>
<g>
	<path class="st0" d="M18.4,36.9h-0.2C8.1,36.9,0,28.7,0,18.7v-0.2C0,8.5,8.1,0.3,18.2,0.3h0.2c10,0,18.2,8.1,18.2,18.2v0.2
		C36.5,28.7,28.4,36.9,18.4,36.9z"/>
	<g>
		<path class="st1" d="M16.3,7.3h-1.3l-0.9,3.3l-0.9-3.3H12c0.3,0.8,0.5,1.6,0.8,2.3c0.4,1.2,0.7,2.1,0.8,2.7v3.4h1.3v-3.4L16.3,7.3
			z M19.7,13.7v-2.2c0-0.7-0.1-1.2-0.4-1.5C19,9.6,18.6,9.4,18,9.4c-0.6,0-1,0.2-1.3,0.6c-0.2,0.3-0.4,0.8-0.4,1.5v2.2
			c0,0.7,0.1,1.2,0.4,1.5c0.3,0.4,0.8,0.6,1.3,0.6c0.6,0,1-0.2,1.3-0.6C19.6,14.9,19.7,14.4,19.7,13.7z M18.6,13.9
			c0,0.6-0.2,0.9-0.5,0.9c-0.4,0-0.5-0.3-0.5-0.9v-2.6c0-0.6,0.2-0.9,0.5-0.9c0.4,0,0.5,0.3,0.5,0.9V13.9z M23.9,15.7V9.5h-1.1v4.8
			c-0.3,0.4-0.5,0.5-0.7,0.5c-0.2,0-0.2-0.1-0.3-0.3c0,0,0-0.2,0-0.4V9.5h-1.1v5c0,0.4,0,0.7,0.1,0.9c0.1,0.3,0.4,0.5,0.7,0.5
			c0.4,0,0.8-0.3,1.3-0.8v0.7H23.9z"/>
		<g>
			<path class="st1" d="M20.3,22.1c-0.2,0-0.4,0.1-0.6,0.3v3.8c0.2,0.2,0.4,0.3,0.6,0.3c0.3,0,0.5-0.3,0.5-0.8V23
				C20.8,22.4,20.7,22.1,20.3,22.1z"/>
			<path class="st1" d="M24.5,22.1c-0.4,0-0.6,0.3-0.6,0.9v0.6h1.1V23C25.1,22.4,24.9,22.1,24.5,22.1z"/>
			<path class="st1" d="M27.3,19c-0.2-1-1-1.7-2-1.8c-2.3-0.3-4.6-0.3-7-0.3c-2.3,0-4.7,0-7,0.3c-1,0.1-1.8,0.8-2,1.8
				C9,20.4,9,21.9,9,23.4c0,1.5,0,3,0.3,4.4c0.2,1,1,1.7,2,1.8c2.3,0.3,4.6,0.3,7,0.3c2.3,0,4.7,0,7-0.3c1-0.1,1.8-0.8,2-1.8
				c0.3-1.4,0.3-2.9,0.3-4.4C27.6,21.9,27.6,20.4,27.3,19z M14.3,20.2h-1.3v7.2h-1.3v-7.2h-1.3v-1.2h3.9V20.2z M17.7,27.4h-1.1v-0.7
				c-0.4,0.5-0.9,0.8-1.3,0.8c-0.4,0-0.6-0.1-0.7-0.5c-0.1-0.2-0.1-0.5-0.1-0.9v-4.9h1.1v4.6c0,0.3,0,0.4,0,0.4
				c0,0.2,0.1,0.3,0.3,0.3c0.2,0,0.5-0.2,0.7-0.5v-4.7h1.1V27.4z M21.9,25.5c0,0.6,0,1-0.1,1.3c-0.2,0.5-0.5,0.7-0.9,0.7
				c-0.4,0-0.8-0.2-1.2-0.7v0.6h-1.1v-8.3h1.1v2.7c0.4-0.4,0.7-0.7,1.2-0.7c0.4,0,0.7,0.2,0.9,0.7c0.1,0.2,0.1,0.7,0.1,1.2V25.5z
				 M26.2,24.5h-2.2v1.1c0,0.6,0.2,0.9,0.6,0.9c0.3,0,0.4-0.2,0.5-0.5c0-0.1,0-0.3,0-0.8h1.1v0.2c0,0.4,0,0.6,0,0.7
				c0,0.2-0.1,0.5-0.3,0.7c-0.3,0.5-0.8,0.7-1.4,0.7c-0.6,0-1-0.2-1.4-0.6c-0.2-0.3-0.4-0.8-0.4-1.5v-2.2c0-0.7,0.1-1.1,0.3-1.5
				c0.3-0.4,0.8-0.6,1.3-0.6c0.6,0,1,0.2,1.3,0.6c0.2,0.3,0.3,0.8,0.3,1.5V24.5z"/>
		</g>
	</g>
</g>
</svg>
