<?xml version="1.0" encoding="utf-8"?>
<!-- Generator: Adobe Illustrator 19.2.1, SVG Export Plug-In . SVG Version: 6.00 Build 0)  -->
<svg version="1.1" id="Layer_1" xmlns="http://www.w3.org/2000/svg" xmlns:xlink="http://www.w3.org/1999/xlink" x="0px" y="0px"
	 viewBox="0 0 36.5 39.5" style="enable-background:new 0 0 36.5 39.5;" xml:space="preserve">
<style type="text/css">
	.st0{fill:#FFFFFF;}
	.st1{fill:#333333;}
</style>
<g>
	<path class="st0" d="M18.2,39.5h0.2c10,0,18.2-8.1,18.2-18.2v-0.2c0-10-8.1-18.2-18.2-18.2h-0.2C8.1,3,0,11.1,0,21.1v0.2
		C0,31.4,8.1,39.5,18.2,39.5z"/>
	<path class="st1" d="M11.4,12h13.7c1.3,0,2.4,1.1,2.4,2.4v13.7c0,1.3-1.1,2.4-2.4,2.4H11.4c-1.3,0-2.4-1.1-2.4-2.4V14.4
		C9.1,13.1,10.1,12,11.4,12z M22.5,14.1c-0.5,0-0.8,0.4-0.8,0.8v2c0,0.5,0.4,0.8,0.8,0.8h2.1c0.5,0,0.8-0.4,0.8-0.8v-2
		c0-0.5-0.4-0.8-0.8-0.8H22.5z M25.4,19.8h-1.6c0.2,0.5,0.2,1,0.2,1.6c0,3.1-2.6,5.5-5.7,5.5c-3.2,0-5.7-2.5-5.7-5.5
		c0-0.6,0.1-1.1,0.2-1.6h-1.7v7.8c0,0.4,0.3,0.7,0.7,0.7h12.8c0.4,0,0.7-0.3,0.7-0.7V19.8z M18.3,17.6c-2,0-3.7,1.6-3.7,3.6
		c0,2,1.7,3.6,3.7,3.6c2,0,3.7-1.6,3.7-3.6C22,19.2,20.3,17.6,18.3,17.6z"/>
</g>
</svg>
